<svg width="700" height="400" viewBox="0 0 700 400" fill="none" xmlns="http://www.w3.org/2000/svg">
  <rect width="700" height="400" rx="24" fill="#181825"/>
  <!-- App window -->
  <rect x="24" y="24" width="652" height="352" rx="16" fill="#232336"/>
  <!-- Top toolbar -->
  <rect x="40" y="40" width="620" height="36" rx="8" fill="#181825"/>
  <rect x="52" y="50" width="16" height="16" rx="8" fill="#ef4444"/>
  <rect x="74" y="50" width="16" height="16" rx="8" fill="#fbbf24"/>
  <rect x="96" y="50" width="16" height="16" rx="8" fill="#22c55e"/>
  <rect x="120" y="50" width="120" height="16" rx="6" fill="#fff" fill-opacity="0.08"/>
  <rect x="250" y="50" width="80" height="16" rx="6" fill="#fff" fill-opacity="0.08"/>
  <rect x="340" y="50" width="60" height="16" rx="6" fill="#818cf8" fill-opacity="0.18"/>
  <rect x="410" y="50" width="60" height="16" rx="6" fill="#f472b6" fill-opacity="0.18"/>
  <rect x="480" y="50" width="60" height="16" rx="6" fill="#2dd4bf" fill-opacity="0.18"/>
  <rect x="550" y="50" width="60" height="16" rx="6" fill="#fbbf24" fill-opacity="0.18"/>
  <!-- Main video area -->
  <rect x="110" y="84" width="400" height="220" rx="12" fill="#1e1e2e"/>
  <rect x="130" y="104" width="360" height="180" rx="10" fill="#232336"/>
  <!-- Video feed grid -->
  <rect x="150" y="124" width="140" height="80" rx="8" fill="#fff" fill-opacity="0.10"/>
  <rect x="310" y="124" width="140" height="80" rx="8" fill="#fff" fill-opacity="0.10"/>
  <rect x="150" y="214" width="140" height="50" rx="8" fill="#fff" fill-opacity="0.07"/>
  <rect x="310" y="214" width="140" height="50" rx="8" fill="#fff" fill-opacity="0.07"/>
  <!-- Controls bar -->
  <rect x="180" y="320" width="200" height="20" rx="8" fill="#232336"/>
  <rect x="190" y="324" width="24" height="12" rx="6" fill="#818cf8" fill-opacity="0.18"/>
  <rect x="220" y="324" width="24" height="12" rx="6" fill="#f472b6" fill-opacity="0.18"/>
  <rect x="250" y="324" width="24" height="12" rx="6" fill="#2dd4bf" fill-opacity="0.18"/>
  <rect x="280" y="324" width="24" height="12" rx="6" fill="#fbbf24" fill-opacity="0.18"/>
  <rect x="310" y="324" width="24" height="12" rx="6" fill="#fff" fill-opacity="0.08"/>
  <!-- Right panel (chat/participants) -->
  <rect x="520" y="84" width="120" height="272" rx="10" fill="#181825"/>
  <rect x="540" y="100" width="80" height="32" rx="8" fill="#fff" fill-opacity="0.10"/>
  <rect x="540" y="142" width="80" height="32" rx="8" fill="#fff" fill-opacity="0.10"/>
  <rect x="540" y="184" width="80" height="32" rx="8" fill="#fff" fill-opacity="0.10"/>
  <rect x="540" y="226" width="80" height="32" rx="8" fill="#fff" fill-opacity="0.10"/>
  <rect x="540" y="268" width="80" height="32" rx="8" fill="#fff" fill-opacity="0.10"/>
  <rect x="540" y="310" width="80" height="32" rx="8" fill="#fff" fill-opacity="0.10"/>
</svg>