<svg width="700" height="400" viewBox="0 0 700 400" fill="none" xmlns="http://www.w3.org/2000/svg">
  <rect width="700" height="400" rx="24" fill="#181825"/>
  <!-- App window -->
  <rect x="24" y="24" width="652" height="352" rx="16" fill="#232336"/>
  <!-- Top toolbar -->
  <rect x="40" y="40" width="620" height="36" rx="8" fill="#181825"/>
  <rect x="52" y="50" width="16" height="16" rx="8" fill="#ef4444"/>
  <rect x="74" y="50" width="16" height="16" rx="8" fill="#fbbf24"/>
  <rect x="96" y="50" width="16" height="16" rx="8" fill="#22c55e"/>
  <rect x="120" y="50" width="120" height="16" rx="6" fill="#fff" fill-opacity="0.08"/>
  <rect x="250" y="50" width="80" height="16" rx="6" fill="#fff" fill-opacity="0.08"/>
  <rect x="340" y="50" width="60" height="16" rx="6" fill="#818cf8" fill-opacity="0.18"/>
  <rect x="410" y="50" width="60" height="16" rx="6" fill="#f472b6" fill-opacity="0.18"/>
  <rect x="480" y="50" width="60" height="16" rx="6" fill="#2dd4bf" fill-opacity="0.18"/>
  <rect x="550" y="50" width="60" height="16" rx="6" fill="#fbbf24" fill-opacity="0.18"/>
  <!-- Sidebar -->
  <rect x="40" y="84" width="60" height="272" rx="10" fill="#181825"/>
  <rect x="52" y="100" width="36" height="36" rx="8" fill="#818cf8" fill-opacity="0.18"/>
  <rect x="52" y="150" width="36" height="36" rx="8" fill="#f472b6" fill-opacity="0.18"/>
  <rect x="52" y="200" width="36" height="36" rx="8" fill="#2dd4bf" fill-opacity="0.18"/>
  <rect x="52" y="250" width="36" height="36" rx="8" fill="#fbbf24" fill-opacity="0.18"/>
  <rect x="52" y="300" width="36" height="36" rx="8" fill="#fff" fill-opacity="0.08"/>
  <!-- Main canvas -->
  <rect x="110" y="84" width="400" height="272" rx="12" fill="#1e1e2e"/>
  <!-- Screenshot area -->
  <rect x="130" y="110" width="360" height="180" rx="10" fill="#fff" fill-opacity="0.08"/>
  <rect x="150" y="130" width="320" height="140" rx="8" fill="#232336"/>
  <!-- Annotation box -->
  <rect x="200" y="170" width="120" height="32" rx="6" fill="#f43f5e" fill-opacity="0.13"/>
  <rect x="210" y="180" width="100" height="12" rx="4" fill="#fff" fill-opacity="0.13"/>
  <!-- Annotation label -->
  <rect x="220" y="190" width="80" height="8" rx="4" fill="#f43f5e" fill-opacity="0.5"/>
  <!-- Toolbar below screenshot -->
  <rect x="180" y="285" width="200" height="20" rx="8" fill="#232336"/>
  <rect x="190" y="289" width="24" height="12" rx="6" fill="#818cf8" fill-opacity="0.18"/>
  <rect x="220" y="289" width="24" height="12" rx="6" fill="#f472b6" fill-opacity="0.18"/>
  <rect x="250" y="289" width="24" height="12" rx="6" fill="#2dd4bf" fill-opacity="0.18"/>
  <rect x="280" y="289" width="24" height="12" rx="6" fill="#fbbf24" fill-opacity="0.18"/>
  <rect x="310" y="289" width="24" height="12" rx="6" fill="#fff" fill-opacity="0.08"/>
  <!-- Right panel (history) -->
  <rect x="520" y="84" width="120" height="272" rx="10" fill="#181825"/>
  <rect x="540" y="100" width="80" height="48" rx="8" fill="#fff" fill-opacity="0.10"/>
  <rect x="540" y="160" width="80" height="48" rx="8" fill="#fff" fill-opacity="0.10"/>
  <rect x="540" y="220" width="80" height="48" rx="8" fill="#fff" fill-opacity="0.10"/>
  <rect x="540" y="280" width="80" height="48" rx="8" fill="#fff" fill-opacity="0.10"/>
  <!-- Details in history -->
  <rect x="550" y="110" width="60" height="8" rx="4" fill="#fff" fill-opacity="0.13"/>
  <rect x="550" y="170" width="60" height="8" rx="4" fill="#fff" fill-opacity="0.13"/>
  <rect x="550" y="230" width="60" height="8" rx="4" fill="#fff" fill-opacity="0.13"/>
  <rect x="550" y="290" width="60" height="8" rx="4" fill="#fff" fill-opacity="0.13"/>
</svg>